# xmcd
#
# Track frame offsets: 
#        150
#        11909
#        23423
#        38084
#        53008
#        63253
#        73435
#        85911
#        99304
#        108774
#        120356
#        136640
#
# Disc length: 1983 seconds
#
# Revision: 0
# Processed by: cddbd v1.5.2PL0 Copyright (c) Steve Scherf et al.
# Submitted via: ExactAudioCopyFreeDBPlugin 1.0
#
DISCID=8d07bd0c
DTITLE=Merle Haggard - I Wish I Was Santa Claus
DYEAR=2004
DGENRE=Country
TTITLE0=El Nino
TTITLE1=I Wish I Was Santa Claus
TTITLE2=Christmas in Cabo San Lucas
TTITLE3=White Christmas
TTITLE4=Jingle Bells
TTITLE5=Santa Claus Is Coming To Town
TTITLE6=Blue Christmas
TTITLE7=I'll Be Home For Christmas
TTITLE8=Santa Claus and Popcorn
TTITLE9=Rudolph, The Red Nosed Reindeer
TTITLE10=Silver Bells
TTITLE11=If We Make It Through December
EXTD=
EXTT0=
EXTT1=
EXTT2=
EXTT3=
EXTT4=
EXTT5=
EXTT6=
EXTT7=
EXTT8=
EXTT9=
EXTT10=
EXTT11=
PLAYORDER=
